<?xml version="1.0" encoding="iso-8859-1"?>
<!-- Generator: Adobe Illustrator 19.0.0, SVG Export Plug-In . SVG Version: 6.00 Build 0)  -->
<svg version="1.1" id="Layer_1" xmlns="http://www.w3.org/2000/svg" xmlns:xlink="http://www.w3.org/1999/xlink" x="0px" y="0px"
	 viewBox="0 0 511.526 511.526" style="enable-background:new 0 0 511.526 511.526;" xml:space="preserve">
<g transform="translate(1 1)">
	<path style="fill:#FCC309;" d="M319,468.096H54.467c-25.6,0-46.933-21.333-46.933-46.933l0,0c0-25.6,21.333-46.933,46.933-46.933
		H319c25.6,0,46.933,21.333,46.933,46.933l0,0C365.933,446.763,345.453,468.096,319,468.096"/>
	<path style="fill:#FD9808;" d="M319,374.23h-17.067c25.6,0,46.933,21.333,46.933,46.933s-21.333,46.933-46.933,46.933H319
		c25.6,0,46.933-21.333,46.933-46.933S345.453,374.23,319,374.23"/>
	<path style="fill:#FFFFFF;" d="M54.467,374.23h17.067c-25.6,0-46.933,21.333-46.933,46.933s21.333,46.933,46.933,46.933H54.467
		c-25.6,0-46.933-21.333-46.933-46.933S28.867,374.23,54.467,374.23"/>
	<path style="fill:#FFDD09;" d="M289.133,421.163c0-10.24,7.68-18.773,17.067-21.333l0,0H186.733H67.267l0,0
		c9.387,1.707,17.067,10.24,17.067,21.333c0,10.24-7.68,18.773-17.067,20.48v0.853h119.467H306.2l0,0
		C296.813,439.936,289.133,431.403,289.133,421.163"/>
	<g>
		<path style="fill:#1CD759;" d="M84.333,421.163c0-11.947-9.387-21.333-21.333-21.333s-21.333,9.387-21.333,21.333
			S51.053,442.496,63,442.496S84.333,433.11,84.333,421.163"/>
		<path style="fill:#1CD759;" d="M331.8,421.163c0-11.947-9.387-21.333-21.333-21.333s-21.333,9.387-21.333,21.333
			s9.387,21.333,21.333,21.333S331.8,433.11,331.8,421.163"/>
	</g>
	<g>
		<path style="fill:#FFDD09;" d="M451.267,41.43h17.067l34.133,102.4L485.4,331.563h-34.133l-25.6-230.4L451.267,41.43z"/>
		<path style="fill:#FFDD09;" d="M442.733,365.696h51.2v-34.133h-51.2V365.696z"/>
		<path style="fill:#FFDD09;" d="M448.707,468.096h-48.64l51.2-102.4H485.4l11.947,34.987c3.413,10.24,3.413,22.187,0,32.427
			C490.52,454.443,470.893,468.096,448.707,468.096"/>
		<path style="fill:#FFDD09;" d="M433.347,84.096H255L144.067,195.03h70.827l57.173-59.733l156.16-7.68l-2.56-26.453L433.347,84.096
			z"/>
		<path style="fill:#FFDD09;" d="M127,212.096v68.267H33.987c-14.507,0-26.453,11.947-26.453,26.453v41.813H127h136.533V247.936
			c0-6.827-0.853-13.653-3.413-19.627l0,0c-7.68-20.48-27.307-33.28-49.493-33.28h-66.56C134.68,195.03,127,202.71,127,212.096"/>
	</g>
	<path style="fill:#1CD759;" d="M33.987,280.363c-14.507,0-26.453,11.947-26.453,26.453v7.68H50.2c14.507,0,25.6-11.947,25.6-25.6
		v-8.533H33.987z"/>
	<path style="fill:#FFFFFF;" d="M59.587,280.363h-25.6c-14.507,0-26.453,11.947-26.453,26.453v41.813h25.6v-41.813
		C33.133,292.31,45.08,280.363,59.587,280.363"/>
	<path style="fill:#FD9808;" d="M260.12,228.31c-7.68-20.48-27.307-33.28-49.493-33.28h-25.6c21.333,0,40.96,12.8,49.493,33.28
		c2.56,5.973,3.413,12.8,3.413,19.627V348.63h25.6V247.936C263.533,241.11,262.68,234.283,260.12,228.31"/>
	<path style="fill:#54C9FD;" d="M209.773,195.03h-40.107v60.587c0,14.507,9.387,27.307,23.04,32.427l70.827,25.6v-66.56
		c0-17.067-8.533-33.28-23.04-44.373C231.107,197.59,220.013,195.03,209.773,195.03"/>
	<path style="fill:#33A9F8;" d="M240.493,203.563c-9.387-5.973-19.627-8.533-30.72-8.533h-25.6c11.093,0,22.187,2.56,30.72,8.533
		c15.36,10.24,23.04,27.307,23.04,44.373v57.173l25.6,9.387v-66.56C263.533,230.87,255.853,214.656,240.493,203.563"/>
	<path d="M319,476.63H54.467C23.747,476.63-1,451.883-1,421.163s24.747-55.467,55.467-55.467H319
		c30.72,0,55.467,24.747,55.467,55.467S349.72,476.63,319,476.63z M54.467,382.763c-21.333,0-38.4,17.067-38.4,38.4
		s17.067,38.4,38.4,38.4H319c21.333,0,38.4-17.067,38.4-38.4s-17.067-38.4-38.4-38.4H54.467z"/>
	<path d="M63,451.03c-16.213,0-29.867-13.653-29.867-29.867S46.787,391.296,63,391.296s29.867,13.653,29.867,29.867
		S79.213,451.03,63,451.03z M63,408.363c-6.827,0-12.8,5.973-12.8,12.8s5.973,12.8,12.8,12.8s12.8-5.973,12.8-12.8
		S69.827,408.363,63,408.363z"/>
	<path d="M310.467,451.03c-16.213,0-29.867-13.653-29.867-29.867s13.653-29.867,29.867-29.867s29.867,13.653,29.867,29.867
		S326.68,451.03,310.467,451.03z M310.467,408.363c-6.827,0-12.8,5.973-12.8,12.8s5.973,12.8,12.8,12.8s12.8-5.973,12.8-12.8
		S317.293,408.363,310.467,408.363z"/>
	<path d="M229.4,382.763h-85.333c-5.12,0-8.533-3.413-8.533-8.533v-25.6c0-5.12,3.413-8.533,8.533-8.533H229.4
		c5.12,0,8.533,3.413,8.533,8.533v25.6C237.933,379.35,234.52,382.763,229.4,382.763z M152.6,365.696h68.267v-8.533H152.6V365.696z"
		/>
	<path d="M263.533,357.163h-256c-5.12,0-8.533-3.413-8.533-8.533v-41.813c0-18.773,15.36-34.987,34.987-34.987h84.48v-59.733
		c0-14.507,11.093-25.6,25.6-25.6h66.56c25.6,0,47.787,15.36,57.173,38.4c2.56,7.68,4.267,15.36,4.267,23.04V348.63
		C272.067,353.75,268.653,357.163,263.533,357.163z M16.067,340.096H255v-92.16c0-5.973-0.853-11.093-3.413-16.213
		c-6.827-17.067-23.04-28.16-40.96-28.16h-66.56c-5.12,0-8.533,4.267-8.533,8.533v68.267c0,5.12-3.413,8.533-8.533,8.533H33.987
		c-10.24,0-17.92,7.68-17.92,17.92V340.096z"/>
	<path d="M485.4,340.096h-34.133c-4.267,0-7.68-3.413-8.533-7.68l-25.6-230.4c0-1.707,0-2.56,0.853-4.267l25.6-59.733
		c1.707-3.413,4.267-5.12,7.68-5.12h17.067c3.413,0,6.827,2.56,7.68,5.973l34.133,102.4c0,0.853,0.853,2.56,0,3.413L493.08,332.416
		C493.933,336.683,489.667,340.096,485.4,340.096z M458.947,323.03h18.773l16.213-178.347l-31.573-94.72h-5.12L434.2,102.87
		L458.947,323.03z"/>
	<path d="M493.933,374.23h-51.2c-5.12,0-8.533-3.413-8.533-8.533v-34.133c0-5.12,3.413-8.533,8.533-8.533h51.2
		c5.12,0,8.533,3.413,8.533,8.533v34.133C502.467,370.816,499.053,374.23,493.933,374.23z M451.267,357.163H485.4v-17.067h-34.133
		V357.163z"/>
	<path d="M448.707,476.63h-48.64c-2.56,0-5.973-1.707-7.68-4.267c-1.707-2.56-1.707-5.973,0-8.533l51.2-102.4
		c1.707-2.56,4.267-5.12,7.68-5.12H485.4c3.413,0,6.827,2.56,7.68,5.973l11.947,34.987c4.267,11.947,4.267,25.6,0,37.547
		C497.347,460.416,474.307,476.63,448.707,476.63z M413.72,459.563h34.987c18.773,0,34.987-11.947,40.107-29.013
		c2.56-8.533,2.56-17.92,0-27.307l-9.387-29.013h-23.04L413.72,459.563z"/>
	<path d="M214.893,203.563h-70.827c-3.413,0-6.827-1.707-7.68-5.12c-1.707-3.413-0.853-6.827,1.707-9.387L249.027,78.123
		c1.707-1.707,4.267-2.56,5.973-2.56h178.347c2.56,0,5.12,1.707,6.827,3.413c1.707,2.56,1.707,5.12,0.853,7.68L434.2,102.87
		l2.56,24.747c0,2.56-0.853,4.267-1.707,6.827c-1.707,1.707-3.413,2.56-5.973,3.413l-152.747,5.973l-55.467,57.173
		C220.013,202.71,217.453,203.563,214.893,203.563z M164.547,186.496h46.933l54.613-57.173c1.707-1.707,3.413-2.56,5.973-2.56
		l147.627-6.827l-2.56-17.92c0-1.707,0-2.56,0.853-4.267l2.56-5.12H258.413L164.547,186.496z"/>
	<path d="M50.2,323.03H7.533c-5.12,0-8.533-3.413-8.533-8.533v-7.68c0-18.773,15.36-34.987,34.987-34.987H75.8
		c5.12,0,8.533,3.413,8.533,8.533v8.533C84.333,307.67,68.973,323.03,50.2,323.03z M16.067,305.963H50.2
		c9.387,0,17.067-7.68,17.067-17.067h-33.28C24.6,288.896,16.92,296.576,16.067,305.963z"/>
	<path d="M263.533,323.03c-0.853,0-1.707,0-2.56-0.853l-70.827-25.6c-17.067-5.973-28.16-22.187-28.16-40.96V195.03
		c0-5.12,3.413-8.533,8.533-8.533h39.253c13.653,0,25.6,3.413,35.84,10.24c17.067,11.947,27.307,30.72,27.307,51.2v66.56
		c0,2.56-1.707,5.12-3.413,6.827C266.947,322.176,265.24,323.03,263.533,323.03z M178.2,203.563v52.907
		c0,11.093,6.827,20.48,17.067,24.747L255,302.55v-54.613c0-14.507-7.68-28.16-19.627-36.693c-6.827-5.12-16.213-7.68-25.6-7.68
		L178.2,203.563L178.2,203.563z"/>
	<path d="M306.2,451.03H67.267c-5.12,0-8.533-3.413-8.533-8.533c0-4.267,2.56-7.68,6.827-8.533c5.973-1.707,10.24-6.827,10.24-12.8
		c0-5.973-4.267-11.093-10.24-12.8c-4.267-0.853-6.827-4.267-6.827-8.533c0-5.12,3.413-8.533,8.533-8.533H306.2
		c5.12,0,8.533,3.413,8.533,8.533c0,4.267-2.56,7.68-6.827,8.533c-5.973,0.853-10.24,6.827-10.24,12.8
		c0,5.973,4.267,11.093,10.24,12.8c4.267,0.853,6.827,4.267,6.827,8.533C314.733,446.763,311.32,451.03,306.2,451.03z
		 M67.267,442.496L67.267,442.496L67.267,442.496z M90.307,433.963h193.707c-1.707-4.267-2.56-8.533-2.56-12.8
		s0.853-8.533,2.56-12.8H90.307c1.707,4.267,2.56,8.533,2.56,12.8S92.013,429.696,90.307,433.963z"/>
</g>
<g>
</g>
<g>
</g>
<g>
</g>
<g>
</g>
<g>
</g>
<g>
</g>
<g>
</g>
<g>
</g>
<g>
</g>
<g>
</g>
<g>
</g>
<g>
</g>
<g>
</g>
<g>
</g>
<g>
</g>
</svg>
